# xmcd CD database file
#
# Track frame offsets:
#	150
#	25887
#	55930
#	78515
#	102995
#	133667
#	169070
#	195152
#
# Disc length: 2742 seconds
#
# Revision: 0
# Processed by: cddbd v1.4PL0 Copyright (c) Steve Scherf et al.
# Submitted via: CDex 1.50Beta5
#
DISCID=600ab408
DTITLE=Mark Levine - Smiley and Me
DYEAR=1988
DGENRE=Jazz
TTITLE0=Our Delight
TTITLE1=Smoke Gets In Your Eyes
TTITLE2=Stablemates
TTITLE3=Daydream
TTITLE4=Stompin' at the Savoy
TTITLE5=My Little Brown Book
TTITLE6=Social Call
TTITLE7=Now
EXTD=YEAR: 1988
EXTT0=
EXTT1=
EXTT2=
EXTT3=
EXTT4=
EXTT5=
EXTT6=
EXTT7=
PLAYORDER=
